<mxfile host="app.diagrams.net" modified="2022-05-12T05:01:27.714Z" agent="5.0 (Macintosh; Intel Mac OS X 10_15_7) AppleWebKit/537.36 (KHTML, like Gecko) Chrome/101.0.4951.54 Safari/537.36" etag="jt0sYGj4LyKtbhgcfXiw" version="18.0.3" type="github">
  <diagram id="R2lEEEUBdFMjLlhIrx00" name="Page-1">
    <mxGraphModel dx="1054" dy="576" grid="0" gridSize="10" guides="1" tooltips="1" connect="1" arrows="1" fold="1" page="1" pageScale="1" pageWidth="1100" pageHeight="850" math="0" shadow="0" extFonts="Permanent Marker^https://fonts.googleapis.com/css?family=Permanent+Marker">
      <root>
        <mxCell id="0" />
        <mxCell id="1" parent="0" />
        <mxCell id="C-vyLk0tnHw3VtMMgP7b-1" value="" style="edgeStyle=entityRelationEdgeStyle;endArrow=ERzeroToMany;startArrow=ERone;endFill=1;startFill=0;entryX=0;entryY=0.5;entryDx=0;entryDy=0;" parent="1" source="C-vyLk0tnHw3VtMMgP7b-27" target="C-vyLk0tnHw3VtMMgP7b-3" edge="1">
          <mxGeometry width="100" height="100" relative="1" as="geometry">
            <mxPoint x="80" y="730" as="sourcePoint" />
            <mxPoint x="180" y="630" as="targetPoint" />
          </mxGeometry>
        </mxCell>
        <mxCell id="d0-8wZ6xfutbVwg7pQpN-62" value="" style="group;fontFamily=Times New Roman;" parent="1" vertex="1" connectable="0">
          <mxGeometry x="120" y="90" width="250" height="210" as="geometry" />
        </mxCell>
        <mxCell id="C-vyLk0tnHw3VtMMgP7b-23" value="     Funding Round" style="shape=table;startSize=30;container=1;collapsible=1;childLayout=tableLayout;fixedRows=1;rowLines=0;fontStyle=1;align=center;resizeLast=1;fontFamily=Helvetica;fontSize=16;" parent="d0-8wZ6xfutbVwg7pQpN-62" vertex="1">
          <mxGeometry width="250" height="210" as="geometry" />
        </mxCell>
        <mxCell id="C-vyLk0tnHw3VtMMgP7b-24" value="" style="shape=partialRectangle;collapsible=0;dropTarget=0;pointerEvents=0;fillColor=none;points=[[0,0.5],[1,0.5]];portConstraint=eastwest;top=0;left=0;right=0;bottom=1;" parent="C-vyLk0tnHw3VtMMgP7b-23" vertex="1">
          <mxGeometry y="30" width="250" height="30" as="geometry" />
        </mxCell>
        <mxCell id="C-vyLk0tnHw3VtMMgP7b-25" value="Index" style="shape=partialRectangle;overflow=hidden;connectable=0;fillColor=none;top=0;left=0;bottom=0;right=0;fontStyle=1;" parent="C-vyLk0tnHw3VtMMgP7b-24" vertex="1">
          <mxGeometry width="70" height="30" as="geometry">
            <mxRectangle width="70" height="30" as="alternateBounds" />
          </mxGeometry>
        </mxCell>
        <mxCell id="C-vyLk0tnHw3VtMMgP7b-26" value="Transaction Name" style="shape=partialRectangle;overflow=hidden;connectable=0;fillColor=none;top=0;left=0;bottom=0;right=0;align=left;spacingLeft=6;fontStyle=5;" parent="C-vyLk0tnHw3VtMMgP7b-24" vertex="1">
          <mxGeometry x="70" width="180" height="30" as="geometry">
            <mxRectangle width="180" height="30" as="alternateBounds" />
          </mxGeometry>
        </mxCell>
        <mxCell id="C-vyLk0tnHw3VtMMgP7b-27" value="" style="shape=partialRectangle;collapsible=0;dropTarget=0;pointerEvents=0;fillColor=none;points=[[0,0.5],[1,0.5]];portConstraint=eastwest;top=0;left=0;right=0;bottom=0;" parent="C-vyLk0tnHw3VtMMgP7b-23" vertex="1">
          <mxGeometry y="60" width="250" height="30" as="geometry" />
        </mxCell>
        <mxCell id="C-vyLk0tnHw3VtMMgP7b-28" value="Deal Info" style="shape=partialRectangle;overflow=hidden;connectable=0;fillColor=none;top=0;left=0;bottom=0;right=0;fontStyle=1" parent="C-vyLk0tnHw3VtMMgP7b-27" vertex="1">
          <mxGeometry width="70" height="30" as="geometry">
            <mxRectangle width="70" height="30" as="alternateBounds" />
          </mxGeometry>
        </mxCell>
        <mxCell id="C-vyLk0tnHw3VtMMgP7b-29" value="Organization Name" style="shape=partialRectangle;overflow=hidden;connectable=0;fillColor=none;top=0;left=0;bottom=0;right=0;align=left;spacingLeft=6;" parent="C-vyLk0tnHw3VtMMgP7b-27" vertex="1">
          <mxGeometry x="70" width="180" height="30" as="geometry">
            <mxRectangle width="180" height="30" as="alternateBounds" />
          </mxGeometry>
        </mxCell>
        <mxCell id="d0-8wZ6xfutbVwg7pQpN-1" value="Funding Type" style="shape=partialRectangle;overflow=hidden;connectable=0;fillColor=none;top=0;left=0;bottom=0;right=0;align=left;spacingLeft=6;" parent="d0-8wZ6xfutbVwg7pQpN-62" vertex="1">
          <mxGeometry x="70" y="90" width="180" height="30" as="geometry">
            <mxRectangle width="230" height="30" as="alternateBounds" />
          </mxGeometry>
        </mxCell>
        <mxCell id="d0-8wZ6xfutbVwg7pQpN-2" value="Money Raised" style="shape=partialRectangle;overflow=hidden;connectable=0;fillColor=none;top=0;left=0;bottom=0;right=0;align=left;spacingLeft=6;" parent="d0-8wZ6xfutbVwg7pQpN-62" vertex="1">
          <mxGeometry x="70" y="120" width="180" height="30" as="geometry">
            <mxRectangle width="230" height="30" as="alternateBounds" />
          </mxGeometry>
        </mxCell>
        <mxCell id="d0-8wZ6xfutbVwg7pQpN-3" value="Investor Names" style="shape=partialRectangle;overflow=hidden;connectable=0;fillColor=none;top=0;left=0;bottom=0;right=0;align=left;spacingLeft=6;" parent="d0-8wZ6xfutbVwg7pQpN-62" vertex="1">
          <mxGeometry x="70" y="180" width="180" height="30" as="geometry">
            <mxRectangle width="230" height="30" as="alternateBounds" />
          </mxGeometry>
        </mxCell>
        <mxCell id="d0-8wZ6xfutbVwg7pQpN-58" value="Announced Date" style="shape=partialRectangle;overflow=hidden;connectable=0;fillColor=none;top=0;left=0;bottom=0;right=0;align=left;spacingLeft=6;" parent="d0-8wZ6xfutbVwg7pQpN-62" vertex="1">
          <mxGeometry x="70" y="150" width="180" height="30" as="geometry">
            <mxRectangle width="230" height="30" as="alternateBounds" />
          </mxGeometry>
        </mxCell>
        <mxCell id="d0-8wZ6xfutbVwg7pQpN-60" value="Investors" style="shape=partialRectangle;overflow=hidden;connectable=0;fillColor=none;top=0;left=0;bottom=0;right=0;fontStyle=1" parent="d0-8wZ6xfutbVwg7pQpN-62" vertex="1">
          <mxGeometry y="180" width="67.3076923076923" height="30" as="geometry">
            <mxRectangle width="60" height="30" as="alternateBounds" />
          </mxGeometry>
        </mxCell>
        <mxCell id="d0-8wZ6xfutbVwg7pQpN-61" value="" style="endArrow=none;html=1;rounded=0;" parent="d0-8wZ6xfutbVwg7pQpN-62" edge="1">
          <mxGeometry width="50" height="50" relative="1" as="geometry">
            <mxPoint x="250" y="180" as="sourcePoint" />
            <mxPoint y="180" as="targetPoint" />
          </mxGeometry>
        </mxCell>
        <mxCell id="d0-8wZ6xfutbVwg7pQpN-4" value="" style="endArrow=none;html=1;rounded=0;" parent="d0-8wZ6xfutbVwg7pQpN-62" edge="1">
          <mxGeometry width="50" height="50" relative="1" as="geometry">
            <mxPoint x="69.9976923076923" y="210" as="sourcePoint" />
            <mxPoint x="69.9976923076923" y="90" as="targetPoint" />
          </mxGeometry>
        </mxCell>
        <mxCell id="2IVL01YZmLrk-9qYX2FJ-4" value="" style="shape=image;verticalLabelPosition=bottom;labelBackgroundColor=default;verticalAlign=top;aspect=fixed;imageAspect=0;image=https://vni.s3.amazonaws.com/170510101408607.png;" vertex="1" parent="d0-8wZ6xfutbVwg7pQpN-62">
          <mxGeometry x="42" y="5" width="28" height="21" as="geometry" />
        </mxCell>
        <mxCell id="d0-8wZ6xfutbVwg7pQpN-65" value="Investor" style="shape=partialRectangle;overflow=hidden;connectable=0;fillColor=none;top=0;left=0;bottom=0;right=0;fontStyle=1" parent="1" vertex="1">
          <mxGeometry x="120" y="430" width="80" height="30" as="geometry">
            <mxRectangle width="70" height="30" as="alternateBounds" />
          </mxGeometry>
        </mxCell>
        <mxCell id="d0-8wZ6xfutbVwg7pQpN-67" value="" style="group" parent="1" vertex="1" connectable="0">
          <mxGeometry x="120" y="340" width="250" height="150" as="geometry" />
        </mxCell>
        <mxCell id="d0-8wZ6xfutbVwg7pQpN-66" value="" style="endArrow=none;html=1;rounded=0;" parent="d0-8wZ6xfutbVwg7pQpN-67" edge="1">
          <mxGeometry width="50" height="50" relative="1" as="geometry">
            <mxPoint x="80" y="120" as="sourcePoint" />
            <mxPoint x="80" y="150" as="targetPoint" />
          </mxGeometry>
        </mxCell>
        <mxCell id="d0-8wZ6xfutbVwg7pQpN-89" value="" style="group" parent="d0-8wZ6xfutbVwg7pQpN-67" vertex="1" connectable="0">
          <mxGeometry width="250" height="150" as="geometry" />
        </mxCell>
        <mxCell id="C-vyLk0tnHw3VtMMgP7b-13" value="Investors" style="shape=table;startSize=30;container=1;collapsible=1;childLayout=tableLayout;fixedRows=1;rowLines=0;fontStyle=1;align=center;resizeLast=1;fontSize=16;fontFamily=Helvetica;" parent="d0-8wZ6xfutbVwg7pQpN-89" vertex="1">
          <mxGeometry width="250" height="150" as="geometry">
            <mxRectangle width="90" height="30" as="alternateBounds" />
          </mxGeometry>
        </mxCell>
        <mxCell id="C-vyLk0tnHw3VtMMgP7b-14" value="" style="shape=partialRectangle;collapsible=0;dropTarget=0;pointerEvents=0;fillColor=none;points=[[0,0.5],[1,0.5]];portConstraint=eastwest;top=0;left=0;right=0;bottom=1;" parent="C-vyLk0tnHw3VtMMgP7b-13" vertex="1">
          <mxGeometry y="30" width="250" height="30" as="geometry" />
        </mxCell>
        <mxCell id="C-vyLk0tnHw3VtMMgP7b-15" value="Index" style="shape=partialRectangle;overflow=hidden;connectable=0;fillColor=none;top=0;left=0;bottom=0;right=0;fontStyle=1;" parent="C-vyLk0tnHw3VtMMgP7b-14" vertex="1">
          <mxGeometry width="80" height="30" as="geometry">
            <mxRectangle width="80" height="30" as="alternateBounds" />
          </mxGeometry>
        </mxCell>
        <mxCell id="C-vyLk0tnHw3VtMMgP7b-16" value="Organization / Person" style="shape=partialRectangle;overflow=hidden;connectable=0;fillColor=none;top=0;left=0;bottom=0;right=0;align=left;spacingLeft=6;fontStyle=5;" parent="C-vyLk0tnHw3VtMMgP7b-14" vertex="1">
          <mxGeometry x="80" width="170" height="30" as="geometry">
            <mxRectangle width="170" height="30" as="alternateBounds" />
          </mxGeometry>
        </mxCell>
        <mxCell id="C-vyLk0tnHw3VtMMgP7b-17" value="" style="shape=partialRectangle;collapsible=0;dropTarget=0;pointerEvents=0;fillColor=none;points=[[0,0.5],[1,0.5]];portConstraint=eastwest;top=0;left=0;right=0;bottom=0;" parent="C-vyLk0tnHw3VtMMgP7b-13" vertex="1">
          <mxGeometry y="60" width="250" height="30" as="geometry" />
        </mxCell>
        <mxCell id="C-vyLk0tnHw3VtMMgP7b-18" value="Basic Info" style="shape=partialRectangle;overflow=hidden;connectable=0;fillColor=none;top=0;left=0;bottom=0;right=0;fontStyle=1" parent="C-vyLk0tnHw3VtMMgP7b-17" vertex="1">
          <mxGeometry width="80" height="30" as="geometry">
            <mxRectangle width="80" height="30" as="alternateBounds" />
          </mxGeometry>
        </mxCell>
        <mxCell id="C-vyLk0tnHw3VtMMgP7b-19" value="Location" style="shape=partialRectangle;overflow=hidden;connectable=0;fillColor=none;top=0;left=0;bottom=0;right=0;align=left;spacingLeft=6;" parent="C-vyLk0tnHw3VtMMgP7b-17" vertex="1">
          <mxGeometry x="80" width="170" height="30" as="geometry">
            <mxRectangle width="170" height="30" as="alternateBounds" />
          </mxGeometry>
        </mxCell>
        <mxCell id="C-vyLk0tnHw3VtMMgP7b-20" value="" style="shape=partialRectangle;collapsible=0;dropTarget=0;pointerEvents=0;fillColor=none;points=[[0,0.5],[1,0.5]];portConstraint=eastwest;top=0;left=0;right=0;bottom=0;" parent="C-vyLk0tnHw3VtMMgP7b-13" vertex="1">
          <mxGeometry y="90" width="250" height="30" as="geometry" />
        </mxCell>
        <mxCell id="C-vyLk0tnHw3VtMMgP7b-21" value="" style="shape=partialRectangle;overflow=hidden;connectable=0;fillColor=none;top=0;left=0;bottom=0;right=0;" parent="C-vyLk0tnHw3VtMMgP7b-20" vertex="1">
          <mxGeometry width="80" height="30" as="geometry">
            <mxRectangle width="80" height="30" as="alternateBounds" />
          </mxGeometry>
        </mxCell>
        <mxCell id="C-vyLk0tnHw3VtMMgP7b-22" value="Investor Type" style="shape=partialRectangle;overflow=hidden;connectable=0;fillColor=none;top=0;left=0;bottom=0;right=0;align=left;spacingLeft=6;" parent="C-vyLk0tnHw3VtMMgP7b-20" vertex="1">
          <mxGeometry x="80" width="170" height="30" as="geometry">
            <mxRectangle width="170" height="30" as="alternateBounds" />
          </mxGeometry>
        </mxCell>
        <mxCell id="d0-8wZ6xfutbVwg7pQpN-87" value="" style="endArrow=none;html=1;rounded=0;fontColor=#FF0000;exitX=-0.001;exitY=0.999;exitDx=0;exitDy=0;exitPerimeter=0;entryX=0.999;entryY=1.036;entryDx=0;entryDy=0;entryPerimeter=0;" parent="C-vyLk0tnHw3VtMMgP7b-13" source="C-vyLk0tnHw3VtMMgP7b-20" target="C-vyLk0tnHw3VtMMgP7b-20" edge="1">
          <mxGeometry width="50" height="50" relative="1" as="geometry">
            <mxPoint x="170" y="50" as="sourcePoint" />
            <mxPoint x="220" as="targetPoint" />
          </mxGeometry>
        </mxCell>
        <mxCell id="d0-8wZ6xfutbVwg7pQpN-63" value="Investments" style="shape=partialRectangle;overflow=hidden;connectable=0;fillColor=none;top=0;left=0;bottom=0;right=0;fontStyle=1" parent="d0-8wZ6xfutbVwg7pQpN-89" vertex="1">
          <mxGeometry y="120" width="80" height="30" as="geometry">
            <mxRectangle width="70" height="30" as="alternateBounds" />
          </mxGeometry>
        </mxCell>
        <mxCell id="d0-8wZ6xfutbVwg7pQpN-64" value="Number of Investments" style="shape=partialRectangle;overflow=hidden;connectable=0;fillColor=none;top=0;left=0;bottom=0;right=0;align=left;spacingLeft=6;" parent="d0-8wZ6xfutbVwg7pQpN-89" vertex="1">
          <mxGeometry x="80" y="120" width="170" height="30" as="geometry">
            <mxRectangle width="180" height="30" as="alternateBounds" />
          </mxGeometry>
        </mxCell>
        <mxCell id="d0-8wZ6xfutbVwg7pQpN-88" value="" style="endArrow=none;html=1;rounded=0;fontColor=#FF0000;exitX=-0.001;exitY=0.999;exitDx=0;exitDy=0;exitPerimeter=0;entryX=0.999;entryY=1.036;entryDx=0;entryDy=0;entryPerimeter=0;" parent="d0-8wZ6xfutbVwg7pQpN-89" edge="1">
          <mxGeometry width="50" height="50" relative="1" as="geometry">
            <mxPoint y="89.99999999999989" as="sourcePoint" />
            <mxPoint x="249.9999999999999" y="91.11000000000001" as="targetPoint" />
          </mxGeometry>
        </mxCell>
        <mxCell id="2IVL01YZmLrk-9qYX2FJ-5" value="" style="shape=image;verticalLabelPosition=bottom;labelBackgroundColor=default;verticalAlign=top;aspect=fixed;imageAspect=0;image=https://vni.s3.amazonaws.com/170510101408607.png;" vertex="1" parent="d0-8wZ6xfutbVwg7pQpN-89">
          <mxGeometry x="52" y="5" width="28" height="21" as="geometry" />
        </mxCell>
        <mxCell id="d0-8wZ6xfutbVwg7pQpN-69" value="" style="edgeStyle=entityRelationEdgeStyle;endArrow=ERzeroToMany;startArrow=ERone;endFill=1;startFill=0;exitX=1;exitY=0.5;exitDx=0;exitDy=0;" parent="1" edge="1" source="C-vyLk0tnHw3VtMMgP7b-14">
          <mxGeometry width="100" height="100" relative="1" as="geometry">
            <mxPoint x="370" y="290" as="sourcePoint" />
            <mxPoint x="441" y="404" as="targetPoint" />
          </mxGeometry>
        </mxCell>
        <mxCell id="d0-8wZ6xfutbVwg7pQpN-77" value="" style="group;strokeColor=none;fillColor=default;" parent="1" vertex="1" connectable="0">
          <mxGeometry x="757" y="140" width="110" height="60" as="geometry" />
        </mxCell>
        <mxCell id="d0-8wZ6xfutbVwg7pQpN-71" value="" style="strokeColor=#000000;shadow=1;strokeWidth=1;rounded=1;absoluteArcSize=1;arcSize=2;fillColor=default;" parent="d0-8wZ6xfutbVwg7pQpN-77" vertex="1">
          <mxGeometry width="110" height="60" as="geometry" />
        </mxCell>
        <mxCell id="2IVL01YZmLrk-9qYX2FJ-1" value="" style="group" vertex="1" connectable="0" parent="d0-8wZ6xfutbVwg7pQpN-77">
          <mxGeometry x="10" y="5" width="91" height="50" as="geometry" />
        </mxCell>
        <mxCell id="d0-8wZ6xfutbVwg7pQpN-75" value="" style="shape=image;verticalLabelPosition=bottom;labelBackgroundColor=default;verticalAlign=top;aspect=fixed;imageAspect=0;image=https://namsor.app/compressed_images/namsor_small.svg;" parent="2IVL01YZmLrk-9qYX2FJ-1" vertex="1">
          <mxGeometry width="50" height="50" as="geometry" />
        </mxCell>
        <mxCell id="d0-8wZ6xfutbVwg7pQpN-76" value="&lt;b&gt;&lt;font style=&quot;font-size: 16px;&quot;&gt;amsor&lt;/font&gt;&lt;/b&gt;" style="text;html=1;align=center;verticalAlign=middle;resizable=0;points=[];autosize=1;strokeColor=none;fillColor=none;" parent="2IVL01YZmLrk-9qYX2FJ-1" vertex="1">
          <mxGeometry x="33" y="18" width="58" height="20" as="geometry" />
        </mxCell>
        <mxCell id="d0-8wZ6xfutbVwg7pQpN-79" value="Founder Name" style="rounded=1;whiteSpace=wrap;html=1;strokeColor=#000000;" parent="1" vertex="1">
          <mxGeometry x="752" y="240" width="120" height="40" as="geometry" />
        </mxCell>
        <mxCell id="d0-8wZ6xfutbVwg7pQpN-80" value="API Result" style="swimlane;strokeColor=#000000;startSize=30;fontSize=16;fontFamily=Helvetica;labelBorderColor=none;" parent="1" vertex="1">
          <mxGeometry x="742" y="310" width="140" height="90" as="geometry" />
        </mxCell>
        <mxCell id="d0-8wZ6xfutbVwg7pQpN-81" value="Gender" style="shape=partialRectangle;overflow=hidden;connectable=0;fillColor=none;top=0;left=0;bottom=0;right=0;align=left;spacingLeft=6;" parent="d0-8wZ6xfutbVwg7pQpN-80" vertex="1">
          <mxGeometry y="30" width="140" height="30" as="geometry">
            <mxRectangle width="180" height="30" as="alternateBounds" />
          </mxGeometry>
        </mxCell>
        <mxCell id="d0-8wZ6xfutbVwg7pQpN-82" value="Probability of Prediction" style="shape=partialRectangle;overflow=hidden;connectable=0;fillColor=none;top=0;left=0;bottom=0;right=0;align=left;spacingLeft=6;" parent="d0-8wZ6xfutbVwg7pQpN-80" vertex="1">
          <mxGeometry y="60" width="140" height="30" as="geometry">
            <mxRectangle width="180" height="30" as="alternateBounds" />
          </mxGeometry>
        </mxCell>
        <mxCell id="d0-8wZ6xfutbVwg7pQpN-83" value="" style="endArrow=classic;html=1;rounded=0;fontColor=#FF0000;entryX=0.5;entryY=0;entryDx=0;entryDy=0;exitX=0.5;exitY=1;exitDx=0;exitDy=0;" parent="1" source="d0-8wZ6xfutbVwg7pQpN-71" target="d0-8wZ6xfutbVwg7pQpN-79" edge="1">
          <mxGeometry width="50" height="50" relative="1" as="geometry">
            <mxPoint x="682" y="260" as="sourcePoint" />
            <mxPoint x="692" y="190" as="targetPoint" />
          </mxGeometry>
        </mxCell>
        <mxCell id="d0-8wZ6xfutbVwg7pQpN-84" value="" style="edgeStyle=entityRelationEdgeStyle;endArrow=ERzeroToMany;startArrow=ERone;endFill=1;startFill=0;" parent="1" edge="1">
          <mxGeometry width="100" height="100" relative="1" as="geometry">
            <mxPoint x="701" y="254" as="sourcePoint" />
            <mxPoint x="752" y="254" as="targetPoint" />
          </mxGeometry>
        </mxCell>
        <mxCell id="d0-8wZ6xfutbVwg7pQpN-85" value="" style="endArrow=classic;html=1;rounded=0;fontColor=#FF0000;entryX=0.5;entryY=0;entryDx=0;entryDy=0;exitX=0.5;exitY=1;exitDx=0;exitDy=0;" parent="1" source="d0-8wZ6xfutbVwg7pQpN-79" target="d0-8wZ6xfutbVwg7pQpN-80" edge="1">
          <mxGeometry width="50" height="50" relative="1" as="geometry">
            <mxPoint x="822" y="210" as="sourcePoint" />
            <mxPoint x="822" y="250" as="targetPoint" />
          </mxGeometry>
        </mxCell>
        <mxCell id="d0-8wZ6xfutbVwg7pQpN-93" value="" style="group" parent="1" vertex="1" connectable="0">
          <mxGeometry x="440" y="90" width="260" height="690" as="geometry" />
        </mxCell>
        <mxCell id="C-vyLk0tnHw3VtMMgP7b-2" value="Company" style="shape=table;startSize=30;container=1;collapsible=1;childLayout=tableLayout;fixedRows=1;rowLines=0;fontStyle=1;align=center;resizeLast=1;fontFamily=Helvetica;fontSize=16;" parent="d0-8wZ6xfutbVwg7pQpN-93" vertex="1">
          <mxGeometry width="260" height="540" as="geometry" />
        </mxCell>
        <mxCell id="C-vyLk0tnHw3VtMMgP7b-3" value="" style="shape=partialRectangle;collapsible=0;dropTarget=0;pointerEvents=0;fillColor=none;points=[[0,0.5],[1,0.5]];portConstraint=eastwest;top=0;left=0;right=0;bottom=1;" parent="C-vyLk0tnHw3VtMMgP7b-2" vertex="1">
          <mxGeometry y="30" width="260" height="30" as="geometry" />
        </mxCell>
        <mxCell id="C-vyLk0tnHw3VtMMgP7b-4" value="Index" style="shape=partialRectangle;overflow=hidden;connectable=0;fillColor=none;top=0;left=0;bottom=0;right=0;fontStyle=1;" parent="C-vyLk0tnHw3VtMMgP7b-3" vertex="1">
          <mxGeometry width="80" height="30" as="geometry">
            <mxRectangle width="80" height="30" as="alternateBounds" />
          </mxGeometry>
        </mxCell>
        <mxCell id="C-vyLk0tnHw3VtMMgP7b-5" value="Organization Name" style="shape=partialRectangle;overflow=hidden;connectable=0;fillColor=none;top=0;left=0;bottom=0;right=0;align=left;spacingLeft=6;fontStyle=5;" parent="C-vyLk0tnHw3VtMMgP7b-3" vertex="1">
          <mxGeometry x="80" width="180" height="30" as="geometry">
            <mxRectangle width="180" height="30" as="alternateBounds" />
          </mxGeometry>
        </mxCell>
        <mxCell id="C-vyLk0tnHw3VtMMgP7b-6" value="" style="shape=partialRectangle;collapsible=0;dropTarget=0;pointerEvents=0;fillColor=none;points=[[0,0.5],[1,0.5]];portConstraint=eastwest;top=0;left=0;right=0;bottom=0;" parent="C-vyLk0tnHw3VtMMgP7b-2" vertex="1">
          <mxGeometry y="60" width="260" height="30" as="geometry" />
        </mxCell>
        <mxCell id="C-vyLk0tnHw3VtMMgP7b-7" value="Basic Info" style="shape=partialRectangle;overflow=hidden;connectable=0;fillColor=none;top=0;left=0;bottom=0;right=0;fontStyle=1" parent="C-vyLk0tnHw3VtMMgP7b-6" vertex="1">
          <mxGeometry width="80" height="30" as="geometry">
            <mxRectangle width="80" height="30" as="alternateBounds" />
          </mxGeometry>
        </mxCell>
        <mxCell id="C-vyLk0tnHw3VtMMgP7b-8" value="Headquarters Location" style="shape=partialRectangle;overflow=hidden;connectable=0;fillColor=none;top=0;left=0;bottom=0;right=0;align=left;spacingLeft=6;" parent="C-vyLk0tnHw3VtMMgP7b-6" vertex="1">
          <mxGeometry x="80" width="180" height="30" as="geometry">
            <mxRectangle width="180" height="30" as="alternateBounds" />
          </mxGeometry>
        </mxCell>
        <mxCell id="C-vyLk0tnHw3VtMMgP7b-9" value="" style="shape=partialRectangle;collapsible=0;dropTarget=0;pointerEvents=0;fillColor=none;points=[[0,0.5],[1,0.5]];portConstraint=eastwest;top=0;left=0;right=0;bottom=0;" parent="C-vyLk0tnHw3VtMMgP7b-2" vertex="1">
          <mxGeometry y="90" width="260" height="30" as="geometry" />
        </mxCell>
        <mxCell id="C-vyLk0tnHw3VtMMgP7b-10" value="" style="shape=partialRectangle;overflow=hidden;connectable=0;fillColor=none;top=0;left=0;bottom=0;right=0;" parent="C-vyLk0tnHw3VtMMgP7b-9" vertex="1">
          <mxGeometry width="80" height="30" as="geometry">
            <mxRectangle width="80" height="30" as="alternateBounds" />
          </mxGeometry>
        </mxCell>
        <mxCell id="C-vyLk0tnHw3VtMMgP7b-11" value="" style="shape=partialRectangle;overflow=hidden;connectable=0;fillColor=none;top=0;left=0;bottom=0;right=0;align=left;spacingLeft=6;" parent="C-vyLk0tnHw3VtMMgP7b-9" vertex="1">
          <mxGeometry x="80" width="180" height="30" as="geometry">
            <mxRectangle width="180" height="30" as="alternateBounds" />
          </mxGeometry>
        </mxCell>
        <mxCell id="d0-8wZ6xfutbVwg7pQpN-56" value="" style="group" parent="d0-8wZ6xfutbVwg7pQpN-93" vertex="1" connectable="0">
          <mxGeometry y="120" width="260" height="570" as="geometry" />
        </mxCell>
        <mxCell id="d0-8wZ6xfutbVwg7pQpN-8" value="Industries" style="shape=partialRectangle;overflow=hidden;connectable=0;fillColor=none;top=0;left=0;bottom=0;right=0;fontStyle=1" parent="d0-8wZ6xfutbVwg7pQpN-56" vertex="1">
          <mxGeometry width="80" height="30" as="geometry">
            <mxRectangle width="80" height="30" as="alternateBounds" />
          </mxGeometry>
        </mxCell>
        <mxCell id="d0-8wZ6xfutbVwg7pQpN-13" value="Industries" style="shape=partialRectangle;overflow=hidden;connectable=0;fillColor=none;top=0;left=0;bottom=0;right=0;align=left;spacingLeft=6;" parent="d0-8wZ6xfutbVwg7pQpN-56" vertex="1">
          <mxGeometry x="80" width="180" height="30" as="geometry">
            <mxRectangle width="180" height="30" as="alternateBounds" />
          </mxGeometry>
        </mxCell>
        <mxCell id="d0-8wZ6xfutbVwg7pQpN-14" value="Team" style="shape=partialRectangle;overflow=hidden;connectable=0;fillColor=none;top=0;left=0;bottom=0;right=0;fontStyle=1" parent="d0-8wZ6xfutbVwg7pQpN-56" vertex="1">
          <mxGeometry y="30" width="80" height="30" as="geometry">
            <mxRectangle width="80" height="30" as="alternateBounds" />
          </mxGeometry>
        </mxCell>
        <mxCell id="d0-8wZ6xfutbVwg7pQpN-15" value="Founders" style="shape=partialRectangle;overflow=hidden;connectable=0;fillColor=none;top=0;left=0;bottom=0;right=0;align=left;spacingLeft=6;" parent="d0-8wZ6xfutbVwg7pQpN-56" vertex="1">
          <mxGeometry x="80" y="30" width="180" height="30" as="geometry">
            <mxRectangle width="180" height="30" as="alternateBounds" />
          </mxGeometry>
        </mxCell>
        <mxCell id="d0-8wZ6xfutbVwg7pQpN-17" value="Number of Employees" style="shape=partialRectangle;overflow=hidden;connectable=0;fillColor=none;top=0;left=0;bottom=0;right=0;align=left;spacingLeft=6;" parent="d0-8wZ6xfutbVwg7pQpN-56" vertex="1">
          <mxGeometry x="80" y="60" width="180" height="30" as="geometry">
            <mxRectangle width="180" height="30" as="alternateBounds" />
          </mxGeometry>
        </mxCell>
        <mxCell id="d0-8wZ6xfutbVwg7pQpN-18" value="Funding" style="shape=partialRectangle;overflow=hidden;connectable=0;fillColor=none;top=0;left=0;bottom=0;right=0;fontStyle=1" parent="d0-8wZ6xfutbVwg7pQpN-56" vertex="1">
          <mxGeometry y="90" width="80" height="30" as="geometry">
            <mxRectangle width="80" height="30" as="alternateBounds" />
          </mxGeometry>
        </mxCell>
        <mxCell id="d0-8wZ6xfutbVwg7pQpN-21" value="Last Funding Date" style="shape=partialRectangle;overflow=hidden;connectable=0;fillColor=none;top=0;left=0;bottom=0;right=0;align=left;spacingLeft=6;" parent="d0-8wZ6xfutbVwg7pQpN-56" vertex="1">
          <mxGeometry x="80" y="90" width="180" height="30" as="geometry">
            <mxRectangle width="180" height="30" as="alternateBounds" />
          </mxGeometry>
        </mxCell>
        <mxCell id="d0-8wZ6xfutbVwg7pQpN-22" value="Last Funding Type" style="shape=partialRectangle;overflow=hidden;connectable=0;fillColor=none;top=0;left=0;bottom=0;right=0;align=left;spacingLeft=6;" parent="d0-8wZ6xfutbVwg7pQpN-56" vertex="1">
          <mxGeometry x="80" y="120" width="180" height="30" as="geometry">
            <mxRectangle width="180" height="30" as="alternateBounds" />
          </mxGeometry>
        </mxCell>
        <mxCell id="d0-8wZ6xfutbVwg7pQpN-23" value="Total Funding Amount" style="shape=partialRectangle;overflow=hidden;connectable=0;fillColor=none;top=0;left=0;bottom=0;right=0;align=left;spacingLeft=6;" parent="d0-8wZ6xfutbVwg7pQpN-56" vertex="1">
          <mxGeometry x="80" y="150" width="180" height="30" as="geometry">
            <mxRectangle width="180" height="30" as="alternateBounds" />
          </mxGeometry>
        </mxCell>
        <mxCell id="d0-8wZ6xfutbVwg7pQpN-24" value="Investors" style="shape=partialRectangle;overflow=hidden;connectable=0;fillColor=none;top=0;left=0;bottom=0;right=0;fontStyle=1" parent="d0-8wZ6xfutbVwg7pQpN-56" vertex="1">
          <mxGeometry y="180" width="80" height="30" as="geometry">
            <mxRectangle width="80" height="30" as="alternateBounds" />
          </mxGeometry>
        </mxCell>
        <mxCell id="d0-8wZ6xfutbVwg7pQpN-26" value="Top 5 Investors" style="shape=partialRectangle;overflow=hidden;connectable=0;fillColor=none;top=0;left=0;bottom=0;right=0;align=left;spacingLeft=6;" parent="d0-8wZ6xfutbVwg7pQpN-56" vertex="1">
          <mxGeometry x="80" y="180" width="180" height="30" as="geometry">
            <mxRectangle width="180" height="30" as="alternateBounds" />
          </mxGeometry>
        </mxCell>
        <mxCell id="d0-8wZ6xfutbVwg7pQpN-27" value="Number of Lead Investors" style="shape=partialRectangle;overflow=hidden;connectable=0;fillColor=none;top=0;left=0;bottom=0;right=0;align=left;spacingLeft=6;" parent="d0-8wZ6xfutbVwg7pQpN-56" vertex="1">
          <mxGeometry x="80" y="210" width="180" height="30" as="geometry">
            <mxRectangle width="180" height="30" as="alternateBounds" />
          </mxGeometry>
        </mxCell>
        <mxCell id="d0-8wZ6xfutbVwg7pQpN-38" value="Post-Money&#xa;Valuations" style="shape=partialRectangle;overflow=hidden;connectable=0;fillColor=none;top=0;left=0;bottom=0;right=0;fontStyle=1" parent="d0-8wZ6xfutbVwg7pQpN-56" vertex="1">
          <mxGeometry y="240" width="80" height="30" as="geometry">
            <mxRectangle width="80" height="30" as="alternateBounds" />
          </mxGeometry>
        </mxCell>
        <mxCell id="d0-8wZ6xfutbVwg7pQpN-39" value="Most Recent Valuation Range" style="shape=partialRectangle;overflow=hidden;connectable=0;fillColor=none;top=0;left=0;bottom=0;right=0;align=left;spacingLeft=6;" parent="d0-8wZ6xfutbVwg7pQpN-56" vertex="1">
          <mxGeometry x="80" y="240" width="180" height="30" as="geometry">
            <mxRectangle width="180" height="30" as="alternateBounds" />
          </mxGeometry>
        </mxCell>
        <mxCell id="d0-8wZ6xfutbVwg7pQpN-40" value="(Website) Monthly Visits" style="shape=partialRectangle;overflow=hidden;connectable=0;fillColor=none;top=0;left=0;bottom=0;right=0;align=left;spacingLeft=6;" parent="d0-8wZ6xfutbVwg7pQpN-56" vertex="1">
          <mxGeometry x="80" y="330" width="180" height="30" as="geometry">
            <mxRectangle width="180" height="30" as="alternateBounds" />
          </mxGeometry>
        </mxCell>
        <mxCell id="d0-8wZ6xfutbVwg7pQpN-41" value="Tech Stack" style="shape=partialRectangle;overflow=hidden;connectable=0;fillColor=none;top=0;left=0;bottom=0;right=0;fontStyle=1" parent="d0-8wZ6xfutbVwg7pQpN-56" vertex="1">
          <mxGeometry y="330" width="80" height="30" as="geometry">
            <mxRectangle width="80" height="30" as="alternateBounds" />
          </mxGeometry>
        </mxCell>
        <mxCell id="d0-8wZ6xfutbVwg7pQpN-42" value="Active Tech Count" style="shape=partialRectangle;overflow=hidden;connectable=0;fillColor=none;top=0;left=0;bottom=0;right=0;align=left;spacingLeft=6;" parent="d0-8wZ6xfutbVwg7pQpN-56" vertex="1">
          <mxGeometry x="80" y="360" width="180" height="30" as="geometry">
            <mxRectangle width="180" height="30" as="alternateBounds" />
          </mxGeometry>
        </mxCell>
        <mxCell id="d0-8wZ6xfutbVwg7pQpN-44" value="Total Products Active" style="shape=partialRectangle;overflow=hidden;connectable=0;fillColor=none;top=0;left=0;bottom=0;right=0;align=left;spacingLeft=6;" parent="d0-8wZ6xfutbVwg7pQpN-56" vertex="1">
          <mxGeometry x="80" y="390" width="180" height="30" as="geometry">
            <mxRectangle width="180" height="30" as="alternateBounds" />
          </mxGeometry>
        </mxCell>
        <mxCell id="d0-8wZ6xfutbVwg7pQpN-45" value="Patents and &#xa;Trademarks" style="shape=partialRectangle;overflow=hidden;connectable=0;fillColor=none;top=0;left=0;bottom=0;right=0;fontStyle=1" parent="d0-8wZ6xfutbVwg7pQpN-56" vertex="1">
          <mxGeometry y="270" width="80" height="40" as="geometry">
            <mxRectangle width="80" height="30" as="alternateBounds" />
          </mxGeometry>
        </mxCell>
        <mxCell id="d0-8wZ6xfutbVwg7pQpN-46" value="Patents Granted" style="shape=partialRectangle;overflow=hidden;connectable=0;fillColor=none;top=0;left=0;bottom=0;right=0;align=left;spacingLeft=6;" parent="d0-8wZ6xfutbVwg7pQpN-56" vertex="1">
          <mxGeometry x="80" y="270" width="180" height="30" as="geometry">
            <mxRectangle width="180" height="30" as="alternateBounds" />
          </mxGeometry>
        </mxCell>
        <mxCell id="d0-8wZ6xfutbVwg7pQpN-47" value="Trademarks Registered" style="shape=partialRectangle;overflow=hidden;connectable=0;fillColor=none;top=0;left=0;bottom=0;right=0;align=left;spacingLeft=6;" parent="d0-8wZ6xfutbVwg7pQpN-56" vertex="1">
          <mxGeometry x="80" y="300" width="180" height="30" as="geometry">
            <mxRectangle width="180" height="30" as="alternateBounds" />
          </mxGeometry>
        </mxCell>
        <mxCell id="d0-8wZ6xfutbVwg7pQpN-48" value="" style="endArrow=none;html=1;rounded=0;" parent="d0-8wZ6xfutbVwg7pQpN-56" edge="1">
          <mxGeometry width="50" height="50" relative="1" as="geometry">
            <mxPoint x="80" y="420" as="sourcePoint" />
            <mxPoint x="80" as="targetPoint" />
          </mxGeometry>
        </mxCell>
        <mxCell id="d0-8wZ6xfutbVwg7pQpN-49" value="" style="endArrow=none;html=1;rounded=0;" parent="d0-8wZ6xfutbVwg7pQpN-56" edge="1">
          <mxGeometry width="50" height="50" relative="1" as="geometry">
            <mxPoint as="sourcePoint" />
            <mxPoint x="260" as="targetPoint" />
          </mxGeometry>
        </mxCell>
        <mxCell id="d0-8wZ6xfutbVwg7pQpN-50" value="" style="endArrow=none;html=1;rounded=0;" parent="d0-8wZ6xfutbVwg7pQpN-56" edge="1">
          <mxGeometry width="50" height="50" relative="1" as="geometry">
            <mxPoint y="29.999999999999993" as="sourcePoint" />
            <mxPoint x="260" y="29.999999999999993" as="targetPoint" />
          </mxGeometry>
        </mxCell>
        <mxCell id="d0-8wZ6xfutbVwg7pQpN-51" value="" style="endArrow=none;html=1;rounded=0;" parent="d0-8wZ6xfutbVwg7pQpN-56" edge="1">
          <mxGeometry width="50" height="50" relative="1" as="geometry">
            <mxPoint y="90" as="sourcePoint" />
            <mxPoint x="260" y="90" as="targetPoint" />
          </mxGeometry>
        </mxCell>
        <mxCell id="d0-8wZ6xfutbVwg7pQpN-52" value="" style="endArrow=none;html=1;rounded=0;" parent="d0-8wZ6xfutbVwg7pQpN-56" edge="1">
          <mxGeometry width="50" height="50" relative="1" as="geometry">
            <mxPoint y="180" as="sourcePoint" />
            <mxPoint x="260" y="180" as="targetPoint" />
          </mxGeometry>
        </mxCell>
        <mxCell id="d0-8wZ6xfutbVwg7pQpN-53" value="" style="endArrow=none;html=1;rounded=0;" parent="d0-8wZ6xfutbVwg7pQpN-56" edge="1">
          <mxGeometry width="50" height="50" relative="1" as="geometry">
            <mxPoint y="240" as="sourcePoint" />
            <mxPoint x="260" y="240" as="targetPoint" />
          </mxGeometry>
        </mxCell>
        <mxCell id="d0-8wZ6xfutbVwg7pQpN-54" value="" style="endArrow=none;html=1;rounded=0;" parent="d0-8wZ6xfutbVwg7pQpN-56" edge="1">
          <mxGeometry width="50" height="50" relative="1" as="geometry">
            <mxPoint y="270" as="sourcePoint" />
            <mxPoint x="260" y="270" as="targetPoint" />
          </mxGeometry>
        </mxCell>
        <mxCell id="d0-8wZ6xfutbVwg7pQpN-55" value="" style="endArrow=none;html=1;rounded=0;" parent="d0-8wZ6xfutbVwg7pQpN-56" edge="1">
          <mxGeometry width="50" height="50" relative="1" as="geometry">
            <mxPoint y="330" as="sourcePoint" />
            <mxPoint x="260" y="330" as="targetPoint" />
          </mxGeometry>
        </mxCell>
        <mxCell id="d0-8wZ6xfutbVwg7pQpN-7" value="Founded Date" style="shape=partialRectangle;overflow=hidden;connectable=0;fillColor=none;top=0;left=0;bottom=0;right=0;align=left;spacingLeft=6;" parent="d0-8wZ6xfutbVwg7pQpN-93" vertex="1">
          <mxGeometry x="80" y="90" width="180" height="30" as="geometry">
            <mxRectangle width="180" height="30" as="alternateBounds" />
          </mxGeometry>
        </mxCell>
        <mxCell id="2IVL01YZmLrk-9qYX2FJ-3" value="" style="shape=image;verticalLabelPosition=bottom;labelBackgroundColor=default;verticalAlign=top;aspect=fixed;imageAspect=0;image=https://vni.s3.amazonaws.com/170510101408607.png;" vertex="1" parent="d0-8wZ6xfutbVwg7pQpN-93">
          <mxGeometry x="52" y="5" width="28" height="21" as="geometry" />
        </mxCell>
      </root>
    </mxGraphModel>
  </diagram>
</mxfile>
